<svg width="34" height="34" viewBox="0 0 34 34" fill="none" xmlns="http://www.w3.org/2000/svg">
<path d="M6.60811 25.0526L1.65376 21.1557C1.38312 20.9521 1.29451 20.5928 1.45695 20.3575C2.25102 19.2075 3.78071 18.8148 5.2837 19.375L9.76443 21.9167L6.60811 25.0526Z" fill="#42A8C3"/>
<path d="M8.27075 26.7152L12.1779 31.6798C12.3814 31.9504 12.7408 32.039 12.976 31.8766L13.2714 31.6726C14.2441 31.001 14.5763 29.7071 14.1025 28.4358L11.4168 23.569L8.27075 26.7152Z" fill="#42A8C3"/>
<path d="M6.89712 20.29L4.09399 23.075L6.60806 25.0525L9.76444 21.9165L6.89712 20.29Z" fill="#219FC0"/>
<path d="M7.9502 9.79018C7.328 9.16798 7.27878 8.17657 7.83464 7.49448C8.62969 6.51883 9.62579 5.43243 10.2233 4.83491C11.0408 4.01746 11.1122 4.11512 11.9856 3.57977C12.1141 3.50093 12.2801 3.51994 12.3867 3.62658L14.1139 5.35372C14.2205 5.46036 14.2395 5.62631 14.1607 5.75489C13.6253 6.62827 13.723 6.69962 12.9055 7.51707C12.308 8.11459 11.2216 9.11068 10.246 9.90574C9.56381 10.4615 8.57233 10.4124 7.9502 9.79018Z" fill="#FFBFAB"/>
<path d="M23.5428 25.3829C22.9206 24.7607 22.8714 23.7693 23.4273 23.0872C24.2223 22.1116 25.2184 21.0252 25.816 20.4277C26.6334 19.6102 26.7048 19.7079 27.5782 19.1725C27.7068 19.0937 27.8727 19.1127 27.9794 19.2193L29.7065 20.9465C29.8132 21.0531 29.8321 21.2191 29.7533 21.3477C29.218 22.221 29.3156 22.2924 28.4982 23.1099C27.9007 23.7074 26.8143 24.7035 25.8386 25.4986C25.1565 26.0544 24.165 26.0051 23.5428 25.3829Z" fill="#FFBFAB"/>
<path d="M15.7501 15.6797L21.8626 9.56728L2.92755 3.61807C2.53764 3.51852 2.15001 3.61331 1.89207 3.87126L0.292331 5.471C-0.243411 6.00674 -0.0134629 6.98883 0.742852 7.39495L15.7501 15.6797Z" fill="#42A8C3"/>
<path d="M17.5842 8.22314L12.1274 13.6799L15.7502 15.6798L21.8626 9.56735L17.5842 8.22314Z" fill="#219FC0"/>
<path d="M17.6534 17.5832L23.7659 11.4708L29.7151 30.4058C29.8146 30.7957 29.7198 31.1833 29.4619 31.4413L27.8622 33.041C27.3264 33.5768 26.3443 33.3468 25.9382 32.5905L17.6534 17.5832Z" fill="#42A8C3"/>
<path d="M29.1907 8.90124L18.922 19.1699C17.1989 20.893 15.3671 22.5001 13.4492 23.9714L8.56355 27.7193C7.43249 28.587 6.08731 28.6919 5.36433 27.9689C4.64134 27.246 4.74629 25.9008 5.614 24.7697L9.36192 19.884C10.8331 17.9662 12.4402 16.1344 14.1634 14.4113L24.4321 4.14264C25.8359 2.73887 27.4481 1.56927 29.1513 0.766274C30.6181 0.0748029 32.1771 -0.3584 32.9344 0.398891C33.6917 1.15618 33.2585 2.71523 32.567 4.18196C31.7641 5.88528 30.5945 7.49746 29.1907 8.90124Z" fill="#E0F3FC"/>
<path d="M32.9344 0.398979C32.6678 0.132442 32.3017 0.0138224 31.8755 0.00164795C31.9061 0.79032 31.5641 1.79058 31.1112 2.75126C30.3083 4.45445 29.1387 6.06669 27.7348 7.47046L17.4662 17.7391C15.7431 19.4622 13.9113 21.0694 11.9934 22.5405L7.10776 26.2884C6.38836 26.8403 5.5825 27.0831 4.90503 27.0011C4.95594 27.377 5.1077 27.7123 5.36434 27.9689C6.08732 28.6919 7.4325 28.5869 8.56356 27.7192L13.4492 23.9713C15.3671 22.5001 17.1988 20.893 18.9219 19.1699L29.1907 8.90126C30.5945 7.49748 31.7641 5.88524 32.5671 4.18205C33.2585 2.71532 33.6917 1.15627 32.9344 0.398979Z" fill="#C3D3DB"/>
<path d="M30.0415 6.93478L29.6909 7.28543C29.3652 7.61108 25.7224 3.96825 26.048 3.6426L26.3987 3.29195C26.6197 3.07092 26.9441 3.00126 27.2083 3.11812C28.5247 3.70041 29.6331 4.80887 30.2154 6.12521C30.3322 6.38934 30.2626 6.71375 30.0415 6.93478Z" fill="#51C4F5"/>
<path d="M6.47374 27.3477C6.3488 27.3477 6.2238 27.3 6.12849 27.2047C5.9378 27.014 5.9378 26.7048 6.12849 26.5142L10.3926 22.2501C10.5832 22.0594 10.8924 22.0594 11.083 22.2501C11.2737 22.4408 11.2737 22.75 11.083 22.9406L6.81899 27.2047C6.72367 27.3 6.59874 27.3477 6.47374 27.3477Z" fill="#42A8C3" fill-opacity="0.92"/>
</svg>
